<?xml version="1.0" standalone="no"?>
<!DOCTYPE svg PUBLIC "-//W3C//DTD SVG 20010904//EN"
 "http://www.w3.org/TR/2001/REC-SVG-20010904/DTD/svg10.dtd">
<svg version="1.0" xmlns="http://www.w3.org/2000/svg"
 width="900.000000pt" height="900.000000pt" viewBox="0 0 900.000000 900.000000"
 preserveAspectRatio="xMidYMid meet">

<g transform="translate(0.000000,900.000000) scale(0.100000,-0.100000)"
fill="#000000" stroke="none">
<path d="M3518 7233 c-9 -10 -156 -256 -328 -548 -172 -291 -384 -650 -471
-797 -88 -147 -159 -277 -159 -290 0 -19 377 -673 412 -715 8 -10 224 -13
1027 -13 559 0 1021 4 1027 8 5 4 19 23 31 42 11 19 67 113 123 209 l103 173
-21 42 c-12 22 -68 120 -125 216 l-103 175 -416 5 -416 5 -27 25 c-32 30 -65
91 -65 121 0 27 36 86 60 99 12 6 206 10 509 10 455 0 492 -1 507 -17 29 -31
393 -657 394 -676 0 -10 -49 -100 -109 -200 -59 -100 -143 -243 -186 -317 -43
-74 -89 -145 -102 -157 l-24 -23 -1010 0 c-569 0 -1009 -4 -1009 -9 0 -5 85
-152 188 -327 l188 -319 984 0 983 0 62 105 c689 1167 895 1521 895 1537 0 19
-375 666 -408 706 -14 16 -74 17 -1041 15 l-1025 -3 -123 -208 c-68 -115 -123
-214 -123 -220 0 -16 239 -420 253 -429 7 -4 193 -8 414 -8 l401 0 32 -26 c17
-15 40 -45 52 -67 17 -35 19 -46 9 -78 -6 -21 -25 -49 -42 -63 l-31 -26 -487
0 -488 0 -20 23 c-11 12 -85 132 -164 267 -79 135 -163 276 -186 315 -24 38
-43 78 -43 90 0 11 39 85 86 165 47 80 133 226 191 325 58 99 113 185 122 190
10 6 381 12 1032 15 l1017 5 -187 316 c-102 174 -192 323 -200 333 -12 15 -95
16 -981 16 -908 0 -968 -1 -982 -17z"/>
<path d="M1705 3034 c-113 -20 -213 -70 -285 -143 -33 -33 -64 -71 -70 -86
-13 -34 -13 -236 0 -269 16 -43 101 -115 175 -151 75 -36 162 -62 320 -96 113
-24 180 -52 200 -83 20 -31 13 -120 -11 -147 -34 -38 -113 -69 -179 -69 -82 0
-130 15 -173 54 -34 32 -36 38 -41 110 l-6 77 -145 0 -145 0 -3 -114 -3 -114
45 -55 c114 -140 329 -215 543 -190 168 20 270 68 368 173 l55 60 0 153 c0
153 0 153 -28 189 -71 89 -119 113 -384 188 -284 81 -298 89 -298 166 0 43 39
83 105 109 68 26 188 16 249 -20 55 -32 66 -55 66 -137 l0 -60 143 3 142 3 3
110 3 111 -36 46 c-20 25 -62 64 -94 86 -139 98 -318 131 -516 96z"/>
<path d="M3873 3022 l-153 -3 0 -619 0 -620 145 0 145 0 0 371 c0 243 3 370
10 367 6 -2 104 -167 219 -368 l208 -365 167 -3 166 -2 0 620 0 620 -145 0
-145 0 0 -370 c0 -203 -3 -370 -7 -370 -5 0 -101 163 -214 362 -114 199 -215
367 -225 373 -12 6 -80 9 -171 7z"/>
<path d="M5378 3022 c-11 -2 -73 -168 -199 -530 -178 -513 -183 -529 -187
-620 l-4 -93 128 3 127 3 51 150 c28 83 55 156 59 163 6 9 59 12 196 12 l189
0 10 -27 c6 -16 22 -64 37 -108 14 -44 35 -106 47 -137 l20 -58 134 0 134 0 0
79 c0 77 -6 96 -186 618 -103 296 -188 539 -189 541 -4 4 -347 8 -367 4z m232
-515 l56 -172 -114 -3 c-63 -1 -117 -1 -119 2 -7 6 107 346 115 346 4 0 32
-78 62 -173z"/>
<path d="M6538 3023 l-408 -3 0 -115 0 -115 173 -2 172 -3 3 -502 2 -503 150
0 150 0 0 505 0 505 173 2 172 3 3 111 c3 130 7 125 -113 121 -38 -1 -253 -3
-477 -4z"/>
<path d="M2570 2400 l0 -620 440 0 440 0 0 115 0 115 -290 0 -291 0 3 143 3
142 263 3 262 2 0 115 0 115 -262 2 -263 3 -3 128 -3 127 281 0 280 0 0 115 0
115 -430 0 -430 0 0 -620z"/>
<path d="M7360 2400 l0 -620 150 0 150 0 0 620 0 620 -150 0 -150 0 0 -620z"/>
</g>
</svg>
